<?xml version="1.0" encoding="UTF-8" standalone="no"?>
<!-- Created with Inkscape (http://www.inkscape.org/) -->

<svg
   width="210mm"
   height="297mm"
   viewBox="0 0 210 297"
   version="1.1"
   id="svg1"
   inkscape:version="1.3.2 (091e20e, 2023-11-25)"
   sodipodi:docname="gestures.svg"
   xmlns:inkscape="http://www.inkscape.org/namespaces/inkscape"
   xmlns:sodipodi="http://sodipodi.sourceforge.net/DTD/sodipodi-0.dtd"
   xmlns="http://www.w3.org/2000/svg"
   xmlns:svg="http://www.w3.org/2000/svg">
  <sodipodi:namedview
     id="namedview1"
     pagecolor="#ffffff"
     bordercolor="#000000"
     borderopacity="0.25"
     inkscape:showpageshadow="2"
     inkscape:pageopacity="0.0"
     inkscape:pagecheckerboard="0"
     inkscape:deskcolor="#d1d1d1"
     inkscape:document-units="mm"
     inkscape:zoom="0.2767898"
     inkscape:cx="3589.3664"
     inkscape:cy="5054.377"
     inkscape:window-width="2560"
     inkscape:window-height="1387"
     inkscape:window-x="0"
     inkscape:window-y="25"
     inkscape:window-maximized="1"
     inkscape:current-layer="g139" />
  <defs
     id="defs1" />
  <g
     inkscape:label="Layer 1"
     inkscape:groupmode="layer"
     id="layer1">
    <g
       id="g9"
       inkscape:label="1">
      <rect
         style="fill:#f9f9f9;stroke-width:0.224137"
         id="rect1"
         width="90"
         height="90"
         x="100"
         y="800" />
      <circle
         style="fill:#2a6f97;fill-opacity:1;stroke-width:0.373238"
         id="path1"
         cx="177.5"
         cy="845"
         r="7.5" />
    </g>
    <g
       id="g10"
       inkscape:label="2">
      <rect
         style="fill:#f9f9f9;stroke-width:0.224137"
         id="rect2"
         width="90"
         height="90"
         x="200"
         y="800" />
      <circle
         style="fill:#2a6f97;fill-opacity:1;stroke-width:0.373238"
         id="circle2"
         cx="267.5"
         cy="845"
         r="7.5" />
    </g>
    <g
       id="g11"
       inkscape:label="3">
      <rect
         style="fill:#f9f9f9;stroke-width:0.224137"
         id="rect7"
         width="90"
         height="90"
         x="300"
         y="800" />
      <circle
         style="fill:#2a6f97;fill-opacity:1;stroke-width:0.373238"
         id="circle7"
         cx="357.5"
         cy="845"
         r="7.5" />
    </g>
    <g
       id="g12"
       inkscape:label="4">
      <rect
         style="fill:#f9f9f9;stroke-width:0.224137"
         id="rect6"
         width="90"
         height="90"
         x="400"
         y="800" />
      <circle
         style="fill:#2a6f97;fill-opacity:1;stroke-width:0.373238"
         id="circle6"
         cx="447.5"
         cy="845"
         r="7.5" />
    </g>
    <g
       id="g13"
       inkscape:label="5">
      <rect
         style="fill:#f9f9f9;stroke-width:0.224137"
         id="rect5"
         width="90"
         height="90"
         x="500"
         y="800" />
      <circle
         style="fill:#2a6f97;fill-opacity:1;stroke-width:0.373238"
         id="circle5"
         cx="537.5"
         cy="845"
         r="7.5" />
    </g>
    <g
       id="g14"
       inkscape:label="6">
      <rect
         style="fill:#f9f9f9;stroke-width:0.224137"
         id="rect4"
         width="90"
         height="90"
         x="600"
         y="800" />
      <circle
         style="fill:#2a6f97;fill-opacity:1;stroke-width:0.373238"
         id="circle4"
         cx="627.5"
         cy="845"
         r="7.5" />
    </g>
    <g
       id="g15"
       inkscape:label="7">
      <rect
         style="fill:#f9f9f9;stroke-width:0.224137"
         id="rect3"
         width="90"
         height="90"
         x="700"
         y="800" />
      <circle
         style="fill:#2a6f97;fill-opacity:1;stroke-width:0.373238"
         id="circle3"
         cx="717.5"
         cy="845"
         r="7.5" />
    </g>
    <g
       id="g16"
       inkscape:label="8">
      <rect
         style="fill:#f9f9f9;stroke-width:0.224137"
         id="rect8"
         width="90"
         height="90"
         x="800"
         y="800" />
      <circle
         style="fill:#2a6f97;fill-opacity:1;stroke-width:0.373238"
         id="circle8"
         cx="817.5"
         cy="845"
         r="7.5" />
    </g>
    <g
       id="g17"
       inkscape:label="1"
       transform="matrix(-1,0,0,1,290,100)">
      <rect
         style="fill:#f9f9f9;stroke-width:0.224137"
         id="rect16"
         width="90"
         height="90"
         x="100"
         y="800" />
      <circle
         style="fill:#2a6f97;fill-opacity:1;stroke-width:0.373238"
         id="circle16"
         cx="177.5"
         cy="845"
         r="7.5" />
    </g>
    <g
       id="g18"
       inkscape:label="2"
       transform="matrix(-1,0,0,1,490,100)">
      <rect
         style="fill:#f9f9f9;stroke-width:0.224137"
         id="rect17"
         width="90"
         height="90"
         x="200"
         y="800" />
      <circle
         style="fill:#2a6f97;fill-opacity:1;stroke-width:0.373238"
         id="circle17"
         cx="267.5"
         cy="845"
         r="7.5" />
    </g>
    <g
       id="g19"
       inkscape:label="3"
       transform="matrix(-1,0,0,1,690,100)">
      <rect
         style="fill:#f9f9f9;stroke-width:0.224137"
         id="rect18"
         width="90"
         height="90"
         x="300"
         y="800" />
      <circle
         style="fill:#2a6f97;fill-opacity:1;stroke-width:0.373238"
         id="circle18"
         cx="357.5"
         cy="845"
         r="7.5" />
    </g>
    <g
       id="g20"
       inkscape:label="4"
       transform="matrix(-1,0,0,1,890,100)">
      <rect
         style="fill:#f9f9f9;stroke-width:0.224137"
         id="rect19"
         width="90"
         height="90"
         x="400"
         y="800" />
      <circle
         style="fill:#2a6f97;fill-opacity:1;stroke-width:0.373238"
         id="circle19"
         cx="447.5"
         cy="845"
         r="7.5" />
    </g>
    <g
       id="g21"
       inkscape:label="5"
       transform="matrix(-1,0,0,1,1090,100)">
      <rect
         style="fill:#f9f9f9;stroke-width:0.224137"
         id="rect20"
         width="90"
         height="90"
         x="500"
         y="800" />
      <circle
         style="fill:#2a6f97;fill-opacity:1;stroke-width:0.373238"
         id="circle20"
         cx="537.5"
         cy="845"
         r="7.5" />
    </g>
    <g
       id="g22"
       inkscape:label="6"
       transform="matrix(-1,0,0,1,1290,100)">
      <rect
         style="fill:#f9f9f9;stroke-width:0.224137"
         id="rect21"
         width="90"
         height="90"
         x="600"
         y="800" />
      <circle
         style="fill:#2a6f97;fill-opacity:1;stroke-width:0.373238"
         id="circle21"
         cx="627.5"
         cy="845"
         r="7.5" />
    </g>
    <g
       id="g23"
       inkscape:label="7"
       transform="matrix(-1,0,0,1,1490,100)">
      <rect
         style="fill:#f9f9f9;stroke-width:0.224137"
         id="rect22"
         width="90"
         height="90"
         x="700"
         y="800" />
      <circle
         style="fill:#2a6f97;fill-opacity:1;stroke-width:0.373238"
         id="circle22"
         cx="717.5"
         cy="845"
         r="7.5" />
    </g>
    <g
       id="g24"
       inkscape:label="8"
       transform="matrix(-1,0,0,1,1690,100)">
      <rect
         style="fill:#f9f9f9;stroke-width:0.224137"
         id="rect23"
         width="90"
         height="90"
         x="800"
         y="800" />
      <circle
         style="fill:#2a6f97;fill-opacity:1;stroke-width:0.373238"
         id="circle23"
         cx="817.5"
         cy="845"
         r="7.5" />
    </g>
    <g
       id="g25"
       inkscape:label="1"
       transform="matrix(0,-1,-1,0,990,1190)">
      <rect
         style="fill:#f9f9f9;stroke-width:0.224137"
         id="rect24"
         width="90"
         height="90"
         x="100"
         y="800" />
      <circle
         style="fill:#2a6f97;fill-opacity:1;stroke-width:0.373238"
         id="circle24"
         cx="177.5"
         cy="845"
         r="7.5" />
    </g>
    <g
       id="g26"
       inkscape:label="2"
       transform="matrix(0,-1,-1,0,1090,1290)">
      <rect
         style="fill:#f9f9f9;stroke-width:0.224137"
         id="rect25"
         width="90"
         height="90"
         x="200"
         y="800" />
      <circle
         style="fill:#2a6f97;fill-opacity:1;stroke-width:0.373238"
         id="circle25"
         cx="267.5"
         cy="845"
         r="7.5" />
    </g>
    <g
       id="g27"
       inkscape:label="3"
       transform="matrix(0,-1,-1,0,1190,1390)">
      <rect
         style="fill:#f9f9f9;stroke-width:0.224137"
         id="rect26"
         width="90"
         height="90"
         x="300"
         y="800" />
      <circle
         style="fill:#2a6f97;fill-opacity:1;stroke-width:0.373238"
         id="circle26"
         cx="357.5"
         cy="845"
         r="7.5" />
    </g>
    <g
       id="g28"
       inkscape:label="4"
       transform="matrix(0,-1,-1,0,1290,1490)">
      <rect
         style="fill:#f9f9f9;stroke-width:0.224137"
         id="rect27"
         width="90"
         height="90"
         x="400"
         y="800" />
      <circle
         style="fill:#2a6f97;fill-opacity:1;stroke-width:0.373238"
         id="circle27"
         cx="447.5"
         cy="845"
         r="7.5" />
    </g>
    <g
       id="g29"
       inkscape:label="5"
       transform="matrix(0,-1,-1,0,1390,1590)">
      <rect
         style="fill:#f9f9f9;stroke-width:0.224137"
         id="rect28"
         width="90"
         height="90"
         x="500"
         y="800" />
      <circle
         style="fill:#2a6f97;fill-opacity:1;stroke-width:0.373238"
         id="circle28"
         cx="537.5"
         cy="845"
         r="7.5" />
    </g>
    <g
       id="g30"
       inkscape:label="6"
       transform="matrix(0,-1,-1,0,1490,1690)">
      <rect
         style="fill:#f9f9f9;stroke-width:0.224137"
         id="rect29"
         width="90"
         height="90"
         x="600"
         y="800" />
      <circle
         style="fill:#2a6f97;fill-opacity:1;stroke-width:0.373238"
         id="circle29"
         cx="627.5"
         cy="845"
         r="7.5" />
    </g>
    <g
       id="g31"
       inkscape:label="7"
       transform="matrix(0,-1,-1,0,1590,1790)">
      <rect
         style="fill:#f9f9f9;stroke-width:0.224137"
         id="rect30"
         width="90"
         height="90"
         x="700"
         y="800" />
      <circle
         style="fill:#2a6f97;fill-opacity:1;stroke-width:0.373238"
         id="circle30"
         cx="717.5"
         cy="845"
         r="7.5" />
    </g>
    <g
       id="g32"
       inkscape:label="8"
       transform="matrix(0,-1,-1,0,1690,1890)">
      <rect
         style="fill:#f9f9f9;stroke-width:0.224137"
         id="rect31"
         width="90"
         height="90"
         x="800"
         y="800" />
      <circle
         style="fill:#2a6f97;fill-opacity:1;stroke-width:0.373238"
         id="circle31"
         cx="817.5"
         cy="845"
         r="7.5" />
    </g>
    <g
       id="g33"
       inkscape:label="1"
       transform="rotate(90,-5,995)">
      <rect
         style="fill:#f9f9f9;stroke-width:0.224137"
         id="rect32"
         width="90"
         height="90"
         x="100"
         y="800" />
      <circle
         style="fill:#2a6f97;fill-opacity:1;stroke-width:0.373238"
         id="circle32"
         cx="177.5"
         cy="845"
         r="7.5" />
    </g>
    <g
       id="g34"
       inkscape:label="2"
       transform="rotate(90,95,995)">
      <rect
         style="fill:#f9f9f9;stroke-width:0.224137"
         id="rect33"
         width="90"
         height="90"
         x="200"
         y="800" />
      <circle
         style="fill:#2a6f97;fill-opacity:1;stroke-width:0.373238"
         id="circle33"
         cx="267.5"
         cy="845"
         r="7.5" />
    </g>
    <g
       id="g35"
       inkscape:label="3"
       transform="rotate(90,195,995)">
      <rect
         style="fill:#f9f9f9;stroke-width:0.224137"
         id="rect34"
         width="90"
         height="90"
         x="300"
         y="800" />
      <circle
         style="fill:#2a6f97;fill-opacity:1;stroke-width:0.373238"
         id="circle34"
         cx="357.5"
         cy="845"
         r="7.5" />
    </g>
    <g
       id="g36"
       inkscape:label="4"
       transform="rotate(90,295,995)">
      <rect
         style="fill:#f9f9f9;stroke-width:0.224137"
         id="rect35"
         width="90"
         height="90"
         x="400"
         y="800" />
      <circle
         style="fill:#2a6f97;fill-opacity:1;stroke-width:0.373238"
         id="circle35"
         cx="447.5"
         cy="845"
         r="7.5" />
    </g>
    <g
       id="g37"
       inkscape:label="5"
       transform="rotate(90,395,995)">
      <rect
         style="fill:#f9f9f9;stroke-width:0.224137"
         id="rect36"
         width="90"
         height="90"
         x="500"
         y="800" />
      <circle
         style="fill:#2a6f97;fill-opacity:1;stroke-width:0.373238"
         id="circle36"
         cx="537.5"
         cy="845"
         r="7.5" />
    </g>
    <g
       id="g38"
       inkscape:label="6"
       transform="rotate(90,495,995)">
      <rect
         style="fill:#f9f9f9;stroke-width:0.224137"
         id="rect37"
         width="90"
         height="90"
         x="600"
         y="800" />
      <circle
         style="fill:#2a6f97;fill-opacity:1;stroke-width:0.373238"
         id="circle37"
         cx="627.5"
         cy="845"
         r="7.5" />
    </g>
    <g
       id="g39"
       inkscape:label="7"
       transform="rotate(90,595,995)">
      <rect
         style="fill:#f9f9f9;stroke-width:0.224137"
         id="rect38"
         width="90"
         height="90"
         x="700"
         y="800" />
      <circle
         style="fill:#2a6f97;fill-opacity:1;stroke-width:0.373238"
         id="circle38"
         cx="717.5"
         cy="845"
         r="7.5" />
    </g>
    <g
       id="g40"
       inkscape:label="8"
       transform="rotate(90,695,995)">
      <rect
         style="fill:#f9f9f9;stroke-width:0.224137"
         id="rect39"
         width="90"
         height="90"
         x="800"
         y="800" />
      <circle
         style="fill:#2a6f97;fill-opacity:1;stroke-width:0.373238"
         id="circle39"
         cx="817.5"
         cy="845"
         r="7.5" />
    </g>
    <g
       id="g41"
       inkscape:label="1"
       transform="rotate(90,-55,1045)">
      <rect
         style="fill:#f9f9f9;stroke-width:0.224137"
         id="rect40"
         width="90"
         height="90"
         x="100"
         y="800" />
      <circle
         style="fill:#2a6f97;fill-opacity:1;stroke-width:0.373238"
         id="circle40"
         cx="177.5"
         cy="845"
         r="7.5" />
    </g>
    <g
       id="g42"
       inkscape:label="2"
       transform="rotate(90,45,1045)">
      <rect
         style="fill:#f9f9f9;stroke-width:0.224137"
         id="rect41"
         width="90"
         height="90"
         x="200"
         y="800" />
      <circle
         style="fill:#2a6f97;fill-opacity:1;stroke-width:0.373238"
         id="circle41"
         cx="267.5"
         cy="845"
         r="7.5" />
    </g>
    <g
       id="g43"
       inkscape:label="3"
       transform="rotate(90,145,1045)">
      <rect
         style="fill:#f9f9f9;stroke-width:0.224137"
         id="rect42"
         width="90"
         height="90"
         x="300"
         y="800" />
      <circle
         style="fill:#2a6f97;fill-opacity:1;stroke-width:0.373238"
         id="circle42"
         cx="357.5"
         cy="845"
         r="7.5" />
    </g>
    <g
       id="g44"
       inkscape:label="4"
       transform="rotate(90,245,1045)">
      <rect
         style="fill:#f9f9f9;stroke-width:0.224137"
         id="rect43"
         width="90"
         height="90"
         x="400"
         y="800" />
      <circle
         style="fill:#2a6f97;fill-opacity:1;stroke-width:0.373238"
         id="circle43"
         cx="447.5"
         cy="845"
         r="7.5" />
    </g>
    <g
       id="g45"
       inkscape:label="5"
       transform="rotate(90,345,1045)">
      <rect
         style="fill:#f9f9f9;stroke-width:0.224137"
         id="rect44"
         width="90"
         height="90"
         x="500"
         y="800" />
      <circle
         style="fill:#2a6f97;fill-opacity:1;stroke-width:0.373238"
         id="circle44"
         cx="537.5"
         cy="845"
         r="7.5" />
    </g>
    <g
       id="g46"
       inkscape:label="6"
       transform="rotate(90,445,1045)">
      <rect
         style="fill:#f9f9f9;stroke-width:0.224137"
         id="rect45"
         width="90"
         height="90"
         x="600"
         y="800" />
      <circle
         style="fill:#2a6f97;fill-opacity:1;stroke-width:0.373238"
         id="circle45"
         cx="627.5"
         cy="845"
         r="7.5" />
    </g>
    <g
       id="g47"
       inkscape:label="7"
       transform="rotate(90,545,1045)">
      <rect
         style="fill:#f9f9f9;stroke-width:0.224137"
         id="rect46"
         width="90"
         height="90"
         x="700"
         y="800" />
      <circle
         style="fill:#2a6f97;fill-opacity:1;stroke-width:0.373238"
         id="circle46"
         cx="717.5"
         cy="845"
         r="7.5" />
    </g>
    <g
       id="g49"
       inkscape:label="8"
       transform="matrix(0,-1,-1,0,1690,1490)">
      <rect
         style="fill:#f9f9f9;stroke-width:0.224137"
         id="rect48"
         width="90"
         height="90"
         x="200"
         y="800" />
      <circle
         style="fill:#2a6f97;fill-opacity:1;stroke-width:0.373238"
         id="circle48"
         cx="267.5"
         cy="845"
         r="7.5" />
    </g>
    <g
       id="g50"
       inkscape:label="8"
       transform="matrix(0,-1,-1,0,1790,1590)">
      <rect
         style="fill:#f9f9f9;stroke-width:0.224137"
         id="rect49"
         width="90"
         height="90"
         x="300"
         y="800" />
      <circle
         style="fill:#2a6f97;fill-opacity:1;stroke-width:0.373238"
         id="circle49"
         cx="357.5"
         cy="845"
         r="7.5" />
    </g>
    <g
       id="g51"
       inkscape:label="10"
       transform="matrix(0,-1,-1,0,1890,1690)">
      <rect
         style="fill:#f9f9f9;stroke-width:0.224137"
         id="rect50"
         width="90"
         height="90"
         x="400"
         y="800" />
      <circle
         style="fill:#2a6f97;fill-opacity:1;stroke-width:0.373238"
         id="circle50"
         cx="447.5"
         cy="845"
         r="7.5" />
    </g>
    <g
       id="g52"
       inkscape:label="11"
       transform="matrix(0,-1,-1,0,1990,1790)">
      <rect
         style="fill:#f9f9f9;stroke-width:0.224137"
         id="rect51"
         width="90"
         height="90"
         x="500"
         y="800" />
      <circle
         style="fill:#2a6f97;fill-opacity:1;stroke-width:0.373238"
         id="circle51"
         cx="537.5"
         cy="845"
         r="7.5" />
    </g>
    <g
       id="g53"
       inkscape:label="12"
       transform="matrix(0,-1,-1,0,2090,1890)">
      <rect
         style="fill:#f9f9f9;stroke-width:0.224137"
         id="rect52"
         width="90"
         height="90"
         x="600"
         y="800" />
      <circle
         style="fill:#2a6f97;fill-opacity:1;stroke-width:0.373238"
         id="circle52"
         cx="627.5"
         cy="845"
         r="7.5" />
    </g>
    <g
       id="g54"
       inkscape:label="13"
       transform="matrix(0,-1,-1,0,2190,1990)">
      <rect
         style="fill:#f9f9f9;stroke-width:0.224137"
         id="rect53"
         width="90"
         height="90"
         x="700"
         y="800" />
      <circle
         style="fill:#2a6f97;fill-opacity:1;stroke-width:0.373238"
         id="circle53"
         cx="712.5"
         cy="845"
         r="7.5" />
    </g>
    <g
       id="g55"
       inkscape:label="14"
       transform="matrix(0,-1,-1,0,2290,2090)">
      <rect
         style="fill:#f9f9f9;stroke-width:0.224137"
         id="rect54"
         width="90"
         height="90"
         x="800"
         y="800" />
      <circle
         style="fill:#2a6f97;fill-opacity:1;stroke-width:0.373238"
         id="circle54"
         cx="812.5"
         cy="845"
         r="7.5" />
    </g>
    <g
       id="g84"
       inkscape:label="1"
       transform="matrix(0,-1,-1,0,990,1490)">
      <rect
         style="fill:#f9f9f9;stroke-width:0.224137"
         id="rect83"
         width="90"
         height="90"
         x="100"
         y="800" />
      <circle
         style="fill:#2a6f97;fill-opacity:1;stroke-width:0.373238"
         id="circle83"
         cx="177.5"
         cy="845"
         r="7.5" />
    </g>
    <g
       id="g85"
       inkscape:label="2"
       transform="matrix(0,-1,-1,0,1090,1590)">
      <rect
         style="fill:#f9f9f9;stroke-width:0.224137"
         id="rect84"
         width="90"
         height="90"
         x="200"
         y="800" />
      <circle
         style="fill:#2a6f97;fill-opacity:1;stroke-width:0.373238"
         id="circle84"
         cx="267.5"
         cy="845"
         r="7.5" />
    </g>
    <g
       id="g86"
       inkscape:label="3"
       transform="matrix(0,-1,-1,0,1190,1690)">
      <rect
         style="fill:#f9f9f9;stroke-width:0.224137"
         id="rect85"
         width="90"
         height="90"
         x="300"
         y="800" />
      <circle
         style="fill:#2a6f97;fill-opacity:1;stroke-width:0.373238"
         id="circle85"
         cx="357.5"
         cy="845"
         r="7.5" />
    </g>
    <g
       id="g87"
       inkscape:label="4"
       transform="matrix(0,-1,-1,0,1290,1790)">
      <rect
         style="fill:#f9f9f9;stroke-width:0.224137"
         id="rect86"
         width="90"
         height="90"
         x="400"
         y="800" />
      <circle
         style="fill:#2a6f97;fill-opacity:1;stroke-width:0.373238"
         id="circle86"
         cx="447.5"
         cy="845"
         r="7.5" />
    </g>
    <g
       id="g88"
       inkscape:label="5"
       transform="matrix(0,-1,-1,0,1390,1890)">
      <rect
         style="fill:#f9f9f9;stroke-width:0.224137"
         id="rect87"
         width="90"
         height="90"
         x="500"
         y="800" />
      <circle
         style="fill:#2a6f97;fill-opacity:1;stroke-width:0.373238"
         id="circle87"
         cx="537.5"
         cy="845"
         r="7.5" />
    </g>
    <g
       id="g89"
       inkscape:label="6"
       transform="matrix(0,-1,-1,0,1490,1990)">
      <rect
         style="fill:#f9f9f9;stroke-width:0.224137"
         id="rect88"
         width="90"
         height="90"
         x="600"
         y="800" />
      <circle
         style="fill:#2a6f97;fill-opacity:1;stroke-width:0.373238"
         id="circle88"
         cx="627.5"
         cy="845"
         r="7.5" />
    </g>
    <g
       id="g90"
       inkscape:label="7"
       transform="matrix(0,-1,-1,0,1590,2090)">
      <rect
         style="fill:#f9f9f9;stroke-width:0.224137"
         id="rect89"
         width="90"
         height="90"
         x="700"
         y="800" />
      <circle
         style="fill:#2a6f97;fill-opacity:1;stroke-width:0.373238"
         id="circle89"
         cx="717.5"
         cy="845"
         r="7.5" />
    </g>
    <g
       id="g91"
       inkscape:label="8"
       transform="rotate(90,295,1395)">
      <rect
         style="fill:#f9f9f9;stroke-width:0.224137"
         id="rect90"
         width="90"
         height="90"
         x="200"
         y="800" />
      <circle
         style="fill:#2a6f97;fill-opacity:1;stroke-width:0.373238"
         id="circle90"
         cx="267.5"
         cy="845"
         r="7.5" />
    </g>
    <g
       id="g92"
       inkscape:label="8"
       transform="rotate(90,395,1395)">
      <rect
         style="fill:#f9f9f9;stroke-width:0.224137"
         id="rect91"
         width="90"
         height="90"
         x="300"
         y="800" />
      <circle
         style="fill:#2a6f97;fill-opacity:1;stroke-width:0.373238"
         id="circle91"
         cx="357.5"
         cy="845"
         r="7.5" />
    </g>
    <g
       id="g93"
       inkscape:label="10"
       transform="rotate(90,495,1395)">
      <rect
         style="fill:#f9f9f9;stroke-width:0.224137"
         id="rect92"
         width="90"
         height="90"
         x="400"
         y="800" />
      <circle
         style="fill:#2a6f97;fill-opacity:1;stroke-width:0.373238"
         id="circle92"
         cx="447.5"
         cy="845"
         r="7.5" />
    </g>
    <g
       id="g94"
       inkscape:label="11"
       transform="rotate(90,595,1395)">
      <rect
         style="fill:#f9f9f9;stroke-width:0.224137"
         id="rect93"
         width="90"
         height="90"
         x="500"
         y="800" />
      <circle
         style="fill:#2a6f97;fill-opacity:1;stroke-width:0.373238"
         id="circle93"
         cx="537.5"
         cy="845"
         r="7.5" />
    </g>
    <g
       id="g95"
       inkscape:label="12"
       transform="rotate(90,695,1395)">
      <rect
         style="fill:#f9f9f9;stroke-width:0.224137"
         id="rect94"
         width="90"
         height="90"
         x="600"
         y="800" />
      <circle
         style="fill:#2a6f97;fill-opacity:1;stroke-width:0.373238"
         id="circle94"
         cx="627.5"
         cy="845"
         r="7.5" />
    </g>
    <g
       id="g96"
       inkscape:label="13"
       transform="rotate(90,795,1395)">
      <rect
         style="fill:#f9f9f9;stroke-width:0.224137"
         id="rect95"
         width="90"
         height="90"
         x="700"
         y="800" />
      <circle
         style="fill:#2a6f97;fill-opacity:1;stroke-width:0.373238"
         id="circle95"
         cx="712.5"
         cy="845"
         r="7.5" />
    </g>
    <g
       id="g97"
       inkscape:label="14"
       transform="rotate(90,895,1395)">
      <rect
         style="fill:#f9f9f9;stroke-width:0.224137"
         id="rect96"
         width="90"
         height="90"
         x="800"
         y="800" />
      <circle
         style="fill:#2a6f97;fill-opacity:1;stroke-width:0.373238"
         id="circle96"
         cx="812.5"
         cy="845"
         r="7.5" />
    </g>
    <g
       id="g70"
       inkscape:label="1"
       transform="matrix(0,-1,-1,0,990,1590)">
      <rect
         style="fill:#f9f9f9;stroke-width:0.224137"
         id="rect69"
         width="90"
         height="90"
         x="100"
         y="800" />
      <circle
         style="fill:#2a6f97;fill-opacity:1;stroke-width:0.373238"
         id="circle69"
         cx="177.5"
         cy="845"
         r="7.5" />
    </g>
    <g
       id="g71"
       inkscape:label="2"
       transform="matrix(0,-1,-1,0,1090,1690)">
      <rect
         style="fill:#f9f9f9;stroke-width:0.224137"
         id="rect70"
         width="90"
         height="90"
         x="200"
         y="800" />
      <circle
         style="fill:#2a6f97;fill-opacity:1;stroke-width:0.373238"
         id="circle70"
         cx="267.5"
         cy="845"
         r="7.5" />
    </g>
    <g
       id="g72"
       inkscape:label="3"
       transform="matrix(0,-1,-1,0,1190,1790)">
      <rect
         style="fill:#f9f9f9;stroke-width:0.224137"
         id="rect71"
         width="90"
         height="90"
         x="300"
         y="800" />
      <circle
         style="fill:#2a6f97;fill-opacity:1;stroke-width:0.373238"
         id="circle71"
         cx="357.5"
         cy="845"
         r="7.5" />
    </g>
    <g
       id="g83"
       inkscape:label="4">
      <rect
         style="fill:#f9f9f9;stroke-width:0.224137"
         id="rect72"
         width="90"
         height="90"
         x="-1490"
         y="-490"
         transform="matrix(0,-1,-1,0,0,0)" />
      <circle
         style="fill:#2a6f97;fill-opacity:1;stroke-width:0.373238"
         id="circle72"
         cx="-1445"
         cy="-445"
         r="7.5"
         transform="matrix(0,-1,-1,0,0,0)" />
    </g>
    <g
       id="g98"
       inkscape:label="5"
       transform="matrix(-1,0,0,1,1090,600)">
      <rect
         style="fill:#f9f9f9;stroke-width:0.224137"
         id="rect97"
         width="90"
         height="90"
         x="500"
         y="800" />
      <circle
         style="fill:#2a6f97;fill-opacity:1;stroke-width:0.373238"
         id="circle97"
         cx="537.5"
         cy="845"
         r="7.5" />
    </g>
    <g
       id="g99"
       inkscape:label="6"
       transform="matrix(-1,0,0,1,1290,600)">
      <rect
         style="fill:#f9f9f9;stroke-width:0.224137"
         id="rect98"
         width="90"
         height="90"
         x="600"
         y="800" />
      <circle
         style="fill:#2a6f97;fill-opacity:1;stroke-width:0.373238"
         id="circle98"
         cx="627.5"
         cy="845"
         r="7.5" />
    </g>
    <g
       id="g100"
       inkscape:label="7"
       transform="matrix(-1,0,0,1,1490,600)">
      <rect
         style="fill:#f9f9f9;stroke-width:0.224137"
         id="rect99"
         width="90"
         height="90"
         x="700"
         y="800" />
      <circle
         style="fill:#2a6f97;fill-opacity:1;stroke-width:0.373238"
         id="circle99"
         cx="717.5"
         cy="845"
         r="7.5" />
    </g>
    <g
       id="g101"
       inkscape:label="8"
       transform="matrix(-1,0,0,1,1690,600)">
      <rect
         style="fill:#f9f9f9;stroke-width:0.224137"
         id="rect100"
         width="90"
         height="90"
         x="800"
         y="800" />
      <circle
         style="fill:#2a6f97;fill-opacity:1;stroke-width:0.373238"
         id="circle100"
         cx="817.5"
         cy="845"
         r="7.5" />
    </g>
    <g
       id="g102"
       inkscape:label="1"
       transform="rotate(90,-205,1195)">
      <rect
         style="fill:#f9f9f9;stroke-width:0.224137"
         id="rect101"
         width="90"
         height="90"
         x="100"
         y="800" />
      <circle
         style="fill:#2a6f97;fill-opacity:1;stroke-width:0.373238"
         id="circle101"
         cx="177.5"
         cy="845"
         r="7.5" />
    </g>
    <g
       id="g103"
       inkscape:label="2"
       transform="rotate(90,-105,1195)">
      <rect
         style="fill:#f9f9f9;stroke-width:0.224137"
         id="rect102"
         width="90"
         height="90"
         x="200"
         y="800" />
      <circle
         style="fill:#2a6f97;fill-opacity:1;stroke-width:0.373238"
         id="circle102"
         cx="267.5"
         cy="845"
         r="7.5" />
    </g>
    <g
       id="g104"
       inkscape:label="3"
       transform="rotate(90,-5,1195)">
      <rect
         style="fill:#f9f9f9;stroke-width:0.224137"
         id="rect103"
         width="90"
         height="90"
         x="300"
         y="800" />
      <circle
         style="fill:#2a6f97;fill-opacity:1;stroke-width:0.373238"
         id="circle103"
         cx="357.5"
         cy="845"
         r="7.5" />
    </g>
    <g
       id="g105"
       inkscape:label="4"
       transform="matrix(1,0,0,-1,0,2990)">
      <rect
         style="fill:#f9f9f9;stroke-width:0.224137"
         id="rect104"
         width="90"
         height="90"
         x="-1490"
         y="-490"
         transform="matrix(0,-1,-1,0,0,0)" />
      <circle
         style="fill:#2a6f97;fill-opacity:1;stroke-width:0.373238"
         id="circle104"
         cx="-1445"
         cy="-445"
         r="7.5"
         transform="matrix(0,-1,-1,0,0,0)" />
    </g>
    <g
       id="g106"
       inkscape:label="5"
       transform="rotate(180,545,1195)">
      <rect
         style="fill:#f9f9f9;stroke-width:0.224137"
         id="rect105"
         width="90"
         height="90"
         x="500"
         y="800" />
      <circle
         style="fill:#2a6f97;fill-opacity:1;stroke-width:0.373238"
         id="circle105"
         cx="537.5"
         cy="845"
         r="7.5" />
    </g>
    <g
       id="g107"
       inkscape:label="6"
       transform="rotate(180,645,1195)">
      <rect
         style="fill:#f9f9f9;stroke-width:0.224137"
         id="rect106"
         width="90"
         height="90"
         x="600"
         y="800" />
      <circle
         style="fill:#2a6f97;fill-opacity:1;stroke-width:0.373238"
         id="circle106"
         cx="627.5"
         cy="845"
         r="7.5" />
    </g>
    <g
       id="g108"
       inkscape:label="7"
       transform="rotate(180,745,1195)">
      <rect
         style="fill:#f9f9f9;stroke-width:0.224137"
         id="rect107"
         width="90"
         height="90"
         x="700"
         y="800" />
      <circle
         style="fill:#2a6f97;fill-opacity:1;stroke-width:0.373238"
         id="circle107"
         cx="717.5"
         cy="845"
         r="7.5" />
    </g>
    <g
       id="g109"
       inkscape:label="8"
       transform="rotate(180,845,1195)">
      <rect
         style="fill:#f9f9f9;stroke-width:0.224137"
         id="rect108"
         width="90"
         height="90"
         x="800"
         y="800" />
      <circle
         style="fill:#2a6f97;fill-opacity:1;stroke-width:0.373238"
         id="circle108"
         cx="817.5"
         cy="845"
         r="7.5" />
    </g>
    <g
       id="g121"
       inkscape:label="1">
      <rect
         style="fill:#f9f9f9;stroke-width:0.224137"
         id="rect109"
         width="90"
         height="90"
         x="100"
         y="1600" />
      <g
         id="g120">
        <circle
           style="fill:#2a6f97;fill-opacity:1;stroke-width:0.373238"
           id="circle109"
           cx="145"
           cy="1622.5"
           r="7.5" />
        <circle
           style="fill:#2a6f97;fill-opacity:1;stroke-width:0.373238"
           id="circle117"
           cx="145"
           cy="1667.5"
           r="7.5" />
      </g>
    </g>
    <g
       id="g122"
       inkscape:label="2">
      <rect
         style="fill:#f9f9f9;stroke-width:0.224137"
         id="rect117"
         width="90"
         height="90"
         x="200"
         y="1600" />
      <g
         id="g119"
         transform="rotate(-15,245,1645)">
        <circle
           style="fill:#2a6f97;fill-opacity:1;stroke-width:0.373238"
           id="circle118"
           cx="245"
           cy="1622.5"
           r="7.5" />
        <circle
           style="fill:#2a6f97;fill-opacity:1;stroke-width:0.373238"
           id="circle119"
           cx="245"
           cy="1667.5"
           r="7.5" />
      </g>
    </g>
    <g
       id="g124"
       inkscape:label="3"
       transform="translate(100)">
      <rect
         style="fill:#f9f9f9;stroke-width:0.224137"
         id="rect122"
         width="90"
         height="90"
         x="200"
         y="1600" />
      <g
         id="g123"
         transform="rotate(-30,245,1645)">
        <circle
           style="fill:#2a6f97;fill-opacity:1;stroke-width:0.373238"
           id="circle122"
           cx="245"
           cy="1622.5"
           r="7.5" />
        <circle
           style="fill:#2a6f97;fill-opacity:1;stroke-width:0.373238"
           id="circle123"
           cx="245"
           cy="1667.5"
           r="7.5" />
      </g>
    </g>
    <g
       id="g126"
       inkscape:label="4"
       transform="translate(200)">
      <rect
         style="fill:#f9f9f9;stroke-width:0.224137"
         id="rect124"
         width="90"
         height="90"
         x="200"
         y="1600" />
      <g
         id="g125"
         transform="rotate(-45,245,1645)">
        <circle
           style="fill:#2a6f97;fill-opacity:1;stroke-width:0.373238"
           id="circle124"
           cx="245"
           cy="1622.5"
           r="7.5" />
        <circle
           style="fill:#2a6f97;fill-opacity:1;stroke-width:0.373238"
           id="circle125"
           cx="245"
           cy="1667.5"
           r="7.5" />
      </g>
    </g>
    <g
       id="g134"
       inkscape:label="5"
       transform="translate(300)">
      <rect
         style="fill:#f9f9f9;stroke-width:0.224137"
         id="rect132"
         width="90"
         height="90"
         x="200"
         y="1600" />
      <g
         id="g133"
         transform="rotate(-60,245,1645)">
        <circle
           style="fill:#2a6f97;fill-opacity:1;stroke-width:0.373238"
           id="circle132"
           cx="245"
           cy="1622.5"
           r="7.5" />
        <circle
           style="fill:#2a6f97;fill-opacity:1;stroke-width:0.373238"
           id="circle133"
           cx="245"
           cy="1667.5"
           r="7.5" />
      </g>
    </g>
    <g
       id="g138"
       inkscape:label="6"
       transform="translate(400)">
      <rect
         style="fill:#f9f9f9;stroke-width:0.224137"
         id="rect136"
         width="90"
         height="90"
         x="200"
         y="1600" />
      <g
         id="g137"
         transform="rotate(-60,245,1645)">
        <circle
           style="fill:#2a6f97;fill-opacity:1;stroke-width:0.373238"
           id="circle136"
           cx="245"
           cy="1622.5"
           r="7.5" />
        <circle
           style="fill:#2a6f97;fill-opacity:1;stroke-width:0.373238"
           id="circle137"
           cx="245"
           cy="1667.5"
           r="7.5" />
      </g>
    </g>
    <g
       id="g136"
       inkscape:label="7"
       transform="translate(500)">
      <rect
         style="fill:#f9f9f9;stroke-width:0.224137"
         id="rect134"
         width="90"
         height="90"
         x="200"
         y="1600" />
      <g
         id="g135"
         transform="rotate(-60,245,1645)">
        <circle
           style="fill:#2a6f97;fill-opacity:1;stroke-width:0.373238"
           id="circle134"
           cx="245"
           cy="1622.5"
           r="7.5" />
        <circle
           style="fill:#2a6f97;fill-opacity:1;stroke-width:0.373238"
           id="circle135"
           cx="245"
           cy="1667.5"
           r="7.5" />
      </g>
    </g>
    <g
       id="g139"
       inkscape:label="14"
       transform="rotate(90,945,1445)">
      <rect
         style="fill:#f9f9f9;stroke-width:0.224137"
         id="rect138"
         width="90"
         height="90"
         x="800"
         y="800" />
      <circle
         style="fill:#2a6f97;fill-opacity:1;stroke-width:0.373238"
         id="circle138"
         cx="812.5"
         cy="845"
         r="7.5" />
    </g>
    <g
       id="g140"
       inkscape:label="14"
       transform="matrix(0,-1,-1,0,2390,2090)">
      <rect
         style="fill:#f9f9f9;stroke-width:0.224137"
         id="rect139"
         width="90"
         height="90"
         x="800"
         y="800" />
      <circle
         style="fill:#2a6f97;fill-opacity:1;stroke-width:0.373238"
         id="circle139"
         cx="812.5"
         cy="845"
         r="7.5" />
    </g>
  </g>
</svg>
